<svg id="Layer_1" data-name="Layer 1" xmlns="http://www.w3.org/2000/svg" viewBox="0 0 270.3 78.07"><defs><style>.cls-1{font-size:30px;font-family:Roboto-Regular, Roboto;}.cls-1,.cls-2{fill:#fff;}.cls-2{fill-rule:evenodd;}</style></defs><text class="cls-1" transform="translate(167.98 51.24)">Inconf</text><path class="cls-2" d="M91.38,53.75a20.06,20.06,0,0,0,28.63,0L127.66,46h0A4.67,4.67,0,0,0,121,46l-4.33,4.4a15.41,15.41,0,0,1-22,0L87,42.59,72.7,57.12a24.69,24.69,0,0,1-35.27,0L16.48,35.85h0a4.8,4.8,0,0,0,0,6.74l17.63,17.9a29.34,29.34,0,0,0,41.91,0L87,49.33l4.36,4.42"/><path class="cls-2" d="M55.07,18.67a20,20,0,0,0-14.32,6L33.1,32.45h0a4.66,4.66,0,0,0,6.64,0l4.33-4.39a15.39,15.39,0,0,1,22,0l7.68,7.79L88.06,21.32a24.69,24.69,0,0,1,35.27,0L141,39.22a4.67,4.67,0,0,0,6.64,0h0L126.65,18a29.33,29.33,0,0,0-41.91,0l-11,11.16-4.36-4.42a20,20,0,0,0-14.31-6"/><path class="cls-2" d="M105.63,18.71h0a20,20,0,0,1,14.32,6L140.9,46,126.59,60.52a29.33,29.33,0,0,1-41.91,0h0A5.07,5.07,0,0,1,91.27,60a24.71,24.71,0,0,0,32-2.81l11-11.16-17.63-17.9a15.39,15.39,0,0,0-22,0L69.32,53.78a20.05,20.05,0,0,1-28.63,0L19.74,32.52,34.05,18A29.33,29.33,0,0,1,76,18h0a5.09,5.09,0,0,1-6.6.56,24.66,24.66,0,0,0-32,2.81l-11,11.16L44,50.41a15.39,15.39,0,0,0,22,0L91.32,24.73A20,20,0,0,1,105.63,18.71Z"/></svg>